<?xml version="1.0" encoding="UTF-8"?>
<svg id="Layer_1" data-name="Layer 1" xmlns="http://www.w3.org/2000/svg" viewBox="0 0 238.98 202.88">
  <defs>
    <style>
      .cls-1 {
        fill: blue;
      }
    </style>
  </defs>
  <path class="cls-1" d="M24.24,98.69c2.56,1.44,5.18,3.12,7.83,5,2.66,1.89,5.82,3.76,9.44,5.75,3.62,1.99,7,3.56,10.18,4.56,4.69,1.48,8.53,1.94,11.95,1.16,3.43-.78,5.57-3.01,6.5-7.02-9.28-3.53-14-4.94-23.26-7.05-5.69-1.3-11.7-4.52-17.93-9.52-6.22-5.01-11.53-10.52-15.05-17-3.52-6.48-5.12-13.07-4.58-20.1.53-6.89,3.14-13.97,7.57-21.38,4.43-7.4,10.34-14.29,16.98-20.44,6.64-6.15,12.73-10.12,18.25-11.29,23.33-2.74,39.71,2.28,57.73,17.61,1.64,1.64,3.06,4.49,4.44,8.63,1.38,4.14,2.2,8.76,2.03,13.78-.33,9.53-1.44,19.42-2.19,29.07-1.14,14.65-2.14,29.44-2,44.15.12,12.89,1.25,25.85,2.51,38.68.99,10.06,1.87,20.27,2.06,30.37.08,4.63-.46,8.01-1.45,10.09-.99,2.08-2.27,2.51-3.9,1.17-5.09-4.18-7.24-6.77-11.93-11.37-1.5-1.47-2.99-4.08-4.6-7.8-1.62-3.72-3.09-7.93-4.28-12.65-.87-3.46-2.54-11.16-4.5-23.19-1.96-12.02-2.76-18.78-3.05-20.39-.32-1.77-.88-3.33-1.72-4.63-.84-1.3-1.62-2.12-2.35-2.44-.72-.32-1.29-.25-1.66.18-.38.44-.6,1.02-.66,1.73-.06.71-.11,1.71-.14,2.98.11,4.6.59,8.81,1.05,12.87.62,5.56,1.04,10.6,1.38,15,.34,4.4.48,8.11.46,11.08-.02,2.97-.38,4.74-1.18,5.32-.8.58-2.09-.24-4.16-2.31-2.75-2.75-6.71-7.61-12.51-13.88-5.8-6.27-12.21-12.52-19.03-18.88-6.82-6.36-13.23-12.02-18.8-17.59-4.15-4.15-6.34-7.11-6.92-9.22-.58-2.11.04-3.27,1.59-3.22,1.38.04,3.34.75,5.9,2.19ZM51.34,57.78c-2.91-.38-5.45,1.16-7.42,4.43-1.97,3.27-2.74,7.28-2.19,11.99.55,4.71,2.26,8.79,4.88,12.44,2.62,3.65,5.32,5.79,8.03,6.46,10.42,2.57,15.69,4.31,25.87,8.73-1.26-12.34-1.71-24.75-1.47-37.15-8.66-3.36-18.48-5.81-27.71-6.91Z"/>
  <path class="cls-1" d="M137.35,184c-3.1,3.03-4.56,4.57-7.76,7.61-1.45,1.38-2.6,1.11-3.51-.71-.91-1.82-1.4-5.32-1.1-10.26.56-9.25,1.76-18.75,2.81-28.08,1.56-13.81,3.19-27.69,3.46-41.59.28-14.75-.75-29.63-2.08-44.25-.89-9.82-2.24-19.93-2.89-29.65-.34-5.08.32-9.76,1.58-13.93,1.26-4.17,2.71-7.08,4.5-8.57,8.19-6.78,18.65-11.98,29.28-13.55,10.22-1.51,20.57-.92,30.34,2.24,6.07,1.97,13.17,8.06,20.86,16.26,6.45,6.88,13.47,17.32,15.38,26.91,1.91,9.56-.63,17.27-6.35,24.12-5.72,6.85-12.53,10.76-19.27,11.33-.88.07-1.6.65-2.17,1.73-.57,1.08-.78,2.11-.65,3.09.13.98.62,1.41,1.48,1.31,8.82-1.01,14.87,2.2,16.78,7.32,1.9,5.12-1.75,11.1-9.84,19.12-8.46,8.39-17.55,16.3-26.01,24.73-8.57,8.54-14.18,15.43-17.98,19.21-1.3,1.3-1.95,1.95-3.25,3.24M194.75,69.13c.17-2.21-.03-4.2-.58-5.95-.55-1.75-1.39-3.15-2.47-4.19-1.08-1.03-2.31-1.49-3.66-1.33-9.11,1.04-13.72,2-22.71,4.77.18,10.28.02,15.47-.76,25.47,8.68-3.08,13.12-4.27,21.91-5.96.9-.17,1.85-.68,2.85-1.51,1-.83,1.87-1.79,2.61-2.9.74-1.1,1.37-2.39,1.88-3.88.51-1.48.83-2.99.95-4.52ZM179.49,114.68c1.62-.56,3.49-2,5.61-4.37,2.11-2.37,3.81-4.98,4.93-7.99,1.11-3,1.3-5.5.58-7.44-.71-1.94-2.06-2.78-3.9-2.37-9.34,2.06-14.08,3.46-23.33,7.02-1.28,9.98-2.18,14.8-4.48,23.57,8.18-3.9,12.35-5.58,20.59-8.42Z"/>
</svg>